PathFileType	4	(X/Y/Z)	C:/Users/opensim2020/Desktop/walking_exp_matlab/subject01_walking11_straight_04.trc	
DataRate	CameraRate	NumFrames	NumMarkers	Units	OrigDataRate	OrigDataStartFrame	OrigNumFrames	
100.00	100.00	8	44	mm	100.00	3870	278	
Frame#	Time	LFHD			RFHD			LBHD			RBHD			C7			T10			CLAV			STRN			RBAK			LSHO			LUPA			LELB			LFRM			LWRA			LWRB			LFIN			RSHO			RUPA			RELB			RFRM			RWRA			RWRB			RFIN			LASI			RASI			LPSI			RPSI			LTHI			LKNE			LTIB			LANK			LHEE			LTOE			RTHI			RKNE			RTIB			RANK			RHEE			RTOE			*39			*40			*41			*42			*43			
		X1	Y1	Z1	X2	Y2	Z2	X3	Y3	Z3	X4	Y4	Z4	X5	Y5	Z5	X6	Y6	Z6	X7	Y7	Z7	X8	Y8	Z8	X9	Y9	Z9	X10	Y10	Z10	X11	Y11	Z11	X12	Y12	Z12	X13	Y13	Z13	X14	Y14	Z14	X15	Y15	Z15	X16	Y16	Z16	X17	Y17	Z17	X18	Y18	Z18	X19	Y19	Z19	X20	Y20	Z20	X21	Y21	Z21	X22	Y22	Z22	X23	Y23	Z23	X24	Y24	Z24	X25	Y25	Z25	X26	Y26	Z26	X27	Y27	Z27	X28	Y28	Z28	X29	Y29	Z29	X30	Y30	Z30	X31	Y31	Z31	X32	Y32	Z32	X33	Y33	Z33	X34	Y34	Z34	X35	Y35	Z35	X36	Y36	Z36	X37	Y37	Z37	X38	Y38	Z38	X39	Y39	Z39	X40	Y40	Z40	X41	Y41	Z41	X42	Y42	Z42	X43	Y43	Z43	X44	Y44	Z44	

1	0.000	-1035.14673	1009.92456	1679.84167	-1145.68616	977.17676	1686.00757	-1063.84119	1121.95764	1633.97827	-1181.13525	1091.17761	1639.95898	-1088.22620	1147.60303	1437.28149	-1091.20667	1176.77271	1143.25647	-1098.68274	1002.49915	1373.86450	-1093.23022	955.19641	1219.78186	-1156.72803	1203.73413	1238.78601	-933.41241	1051.99036	1407.48718	-845.02448	1074.87500	1224.28503	-842.63141	1082.73523	1072.18726	-817.27838	1033.81702	969.14307	-835.40240	943.37390	863.36108	-810.58740	996.94702	852.35413	-800.33984	940.38043	789.10309	-1242.90527	1083.34131	1397.32629	-1334.86719	1144.82715	1193.36389	-1335.93213	1138.17480	1069.29187	-1368.92285	1110.10962	953.45404	-1360.98792	1023.08563	839.83020	-1393.22339	1072.23828	838.84332	-1394.32739	1033.46460	760.87646	-988.84131	1004.30725	933.75305	-1205.25159	1005.98303	940.49091	-1038.53186	1189.92175	949.01270	-1184.29089	1190.12146	955.71295	-929.89319	1008.56390	601.01245	-938.56970	1017.19257	467.52521	-924.28705	1161.38855	352.01843	-961.85370	1325.29956	201.01247	-1015.44141	1376.14221	208.62630	-969.88660	1256.06921	74.10540	-1256.45691	1028.88538	609.08356	-1227.12341	995.49829	454.12866	-1232.51563	1040.38818	282.24265	-1185.47522	1063.54089	79.22787	-1137.26038	1114.44250	40.84386	-1183.59912	923.84491	40.96692	-1125.08215	993.17633	1719.40356	-3101.93823	1973.01465	1023.59253	-3140.85449	2012.42737	1021.95691						 
2	0.010	-1036.46301	1002.43640	1679.84802	-1146.77356	969.62732	1686.05664	-1065.08435	1114.53601	1634.21631	-1182.36951	1083.68982	1640.20166	-1089.65259	1140.58423	1437.74866	-1092.61865	1170.58997	1143.84058	-1099.75122	995.66663	1373.89050	-1094.27197	948.82758	1219.73376	-1158.37939	1197.24121	1239.51660	-934.61395	1045.39246	1407.71167	-846.46301	1069.79126	1224.51465	-844.41034	1078.89673	1072.54187	-818.82507	1031.37769	969.00525	-836.53613	942.03809	862.05780	-811.92975	995.94910	851.63037	-801.60028	940.48425	787.58600	-1244.16663	1075.98926	1397.52637	-1336.65234	1136.96973	1193.83167	-1337.72021	1130.15454	1069.54871	-1370.63025	1101.14941	953.90051	-1362.23340	1013.35315	841.09857	-1394.79529	1062.17261	839.67609	-1395.95203	1022.42297	762.01617	-990.23730	998.33099	934.28540	-1206.95886	1000.31104	940.52740	-1039.44263	1183.88391	949.49469	-1185.23462	1184.50879	955.85144	-930.33118	997.98584	602.67261	-939.00580	1003.77399	469.34375	-925.48859	1147.87561	354.07458	-963.98572	1310.13452	201.06306	-1017.69147	1361.44800	207.40147	-971.01068	1238.58838	75.81701	-1257.06665	1024.62268	608.68872	-1227.43433	992.39172	453.56244	-1232.54871	1038.76941	282.24954	-1185.30371	1063.28760	79.11349	-1137.15198	1114.41846	40.95295	-1183.44092	923.91412	41.01398	-1126.40979	985.42651	1719.53186	-3102.02246	1973.21997	1023.32507	-3140.65796	2012.49377	1022.03766						 
3	0.020	-1037.54468	994.93573	1679.88599	-1147.93298	962.06427	1686.05603	-1066.33716	1107.13232	1634.55627	-1183.63074	1076.22473	1640.48157	-1091.03784	1133.73499	1438.18237	-1093.96631	1164.46350	1144.39111	-1100.84241	988.89355	1373.91345	-1095.49634	942.46375	1219.66479	-1160.00940	1190.73657	1240.20459	-935.78046	1038.76538	1407.87732	-847.78040	1064.56287	1224.72876	-846.01813	1075.08679	1073.04065	-820.33960	1028.72986	968.78442	-837.61505	940.77386	860.72260	-813.36377	994.86438	850.99377	-802.75873	940.36096	786.28217	-1245.38342	1068.75647	1397.82764	-1338.38013	1129.19495	1194.28760	-1339.77856	1122.35461	1070.02075	-1372.63330	1092.16553	954.56470	-1363.89783	1003.25262	842.59338	-1396.39233	1051.86780	840.60522	-1397.27637	1011.44238	763.32806	-991.70190	992.38312	934.96851	-1208.47998	994.63550	940.64307	-1040.35400	1177.86938	950.05219	-1186.11145	1178.90466	955.96814	-930.49927	987.04291	604.33459	-939.44476	990.64569	471.04517	-926.94836	1134.14807	355.80566	-966.02942	1294.91772	200.33066	-1020.03448	1346.17456	205.36891	-972.27917	1219.90234	77.06943	-1257.56909	1020.46912	608.34308	-1227.86853	989.41296	452.96396	-1232.60071	1037.24512	282.04465	-1185.08606	1063.04065	79.11633	-1136.93433	1114.19043	41.06454	-1183.40491	923.63184	40.83696	-1127.22876	978.00507	1719.37195	-3101.79199	1973.26416	1023.51575	-3140.73682	2012.55835	1022.08099						 
4	0.030	-1038.44629	987.49677	1679.99133	-1148.97473	954.41418	1686.02319	-1067.48145	1099.70239	1634.95020	-1184.72913	1068.70715	1640.78870	-1092.31262	1126.95569	1438.62329	-1095.23047	1158.36450	1144.93909	-1101.83374	982.23077	1373.98914	-1096.49512	936.12726	1219.62939	-1161.49597	1184.28796	1240.87793	-936.87219	1032.33374	1408.13708	-849.16901	1059.32935	1224.95081	-847.63300	1071.04468	1073.44971	-821.76074	1026.09106	968.66455	-838.69037	939.40332	859.46997	-814.73291	993.84595	850.48285	-803.88708	940.04321	784.92139	-1246.25464	1061.81006	1398.16968	-1340.10754	1121.50903	1194.80884	-1341.61157	1114.50073	1070.40833	-1374.28943	1083.20911	955.08942	-1365.37354	993.30109	843.96625	-1398.19922	1041.87988	841.54950	-1399.49426	1000.60791	764.98889	-993.09619	986.42822	935.54291	-1209.97424	988.94965	940.76160	-1041.20520	1171.76379	950.54498	-1186.98328	1173.21082	956.06799	-930.81592	976.56274	606.00537	-939.91589	977.81769	472.83865	-927.96210	1120.57373	357.31448	-968.31860	1278.70044	198.78979	-1022.53516	1330.32336	202.34215	-973.18176	1200.77649	77.93642	-1257.86987	1015.83081	607.88104	-1228.51904	986.70013	452.65216	-1232.56677	1035.93799	281.84473	-1184.97986	1062.98450	79.25679	-1136.80542	1114.11340	41.10660	-1183.30688	923.64117	40.90396	-1128.36267	970.22601	1719.54468	-3101.97900	1973.11304	1023.51062	-3140.70630	2012.52222	1021.95148						 
5	0.040	-1039.52625	979.91748	1679.98450	-1149.87390	946.74921	1685.92615	-1068.57031	1092.30786	1635.38721	-1185.73486	1061.13721	1641.08765	-1093.49561	1120.20508	1439.03979	-1096.48389	1152.22900	1145.36230	-1102.60999	975.62238	1374.17871	-1097.45276	929.90045	1219.67749	-1162.98535	1177.88928	1241.51245	-937.87628	1025.94592	1408.40247	-850.32275	1054.07251	1225.26428	-849.18878	1066.82739	1073.85254	-823.16315	1023.37915	968.58124	-839.70386	937.99670	858.31360	-815.97797	992.61176	849.98425	-804.87372	939.85547	783.86328	-1247.42969	1054.70129	1398.51843	-1341.75745	1113.96106	1195.31824	-1343.38062	1106.72009	1070.80432	-1376.14111	1074.26099	955.80280	-1366.60144	983.54944	845.35742	-1399.82813	1031.67358	842.65680	-1401.17676	989.72980	766.72028	-994.42786	980.60675	936.30841	-1211.78308	982.82330	940.84839	-1042.03271	1165.69812	951.05554	-1187.86340	1167.43945	956.15918	-931.17731	966.33948	607.78693	-940.32959	965.49323	474.57980	-928.86359	1107.21765	358.00638	-970.58087	1262.32202	196.70396	-1025.11487	1314.09180	198.37621	-973.99097	1180.47852	78.69383	-1258.10266	1012.04993	607.59399	-1228.86316	984.25653	452.02997	-1232.76965	1034.67798	281.69168	-1184.91992	1062.85901	79.16669	-1136.72021	1114.11804	41.23228	-1183.22888	923.68219	40.80898	-1129.54321	962.26599	1719.50415	-3102.04321	1973.05212	1023.79474	-3140.80518	2012.49365	1021.97998						 
6	0.050	-1040.48035	972.25635	1680.04163	-1150.86401	939.06635	1685.80408	-1069.59924	1084.91223	1635.91602	-1186.75879	1053.64050	1641.44690	-1094.59094	1113.57666	1439.42065	-1097.72913	1146.13257	1145.81213	-1103.66504	969.06195	1374.34473	-1098.32532	923.64728	1219.77051	-1164.34497	1171.46704	1242.09314	-938.78137	1019.67938	1408.63306	-851.43805	1048.78552	1225.55933	-850.60242	1062.73438	1074.40527	-824.45349	1020.52258	968.59247	-840.67145	936.49188	857.20258	-817.14337	991.31464	849.60266	-805.89905	939.47522	782.73322	-1248.45605	1047.83789	1398.86633	-1343.20679	1106.50244	1195.82617	-1345.09143	1098.98828	1071.19800	-1377.83264	1065.36438	956.41626	-1368.26501	973.49518	847.06323	-1401.48987	1021.69830	843.75153	-1402.42712	978.73041	767.97546	-995.77924	974.37726	937.14026	-1213.05054	976.95862	940.97723	-1042.89758	1159.76721	951.58026	-1188.73743	1161.63342	956.26886	-931.60791	956.56427	609.61102	-940.98755	953.40948	476.30756	-930.00922	1093.44470	357.67679	-972.92798	1245.58459	193.99596	-1027.95923	1297.15454	193.83258	-974.56189	1159.57056	78.98344	-1258.69019	1008.37433	607.20258	-1229.47058	981.77704	451.56369	-1232.83154	1033.44800	281.44858	-1184.71814	1062.73352	79.03867	-1136.59973	1113.91736	41.25463	-1183.20227	923.69080	40.88957	-1130.65112	954.27417	1719.64832	-3101.91602	1973.10608	1023.89575	-3140.81323	2012.42896	1022.02039						 
7	0.060	-1041.32751	964.76349	1680.02405	-1151.67297	931.37311	1685.64990	-1070.49756	1077.49988	1636.42249	-1187.67603	1046.14282	1641.82568	-1095.64856	1107.00354	1439.84619	-1098.91077	1139.99951	1146.25696	-1104.46472	962.55249	1374.46655	-1099.10767	917.39813	1219.89880	-1165.56372	1165.01831	1242.59277	-939.61096	1013.39813	1408.90723	-852.45508	1043.42224	1225.84143	-851.97797	1058.50720	1074.84326	-825.66400	1017.64014	968.65991	-841.57794	934.89844	856.19714	-818.24725	989.91071	849.31940	-807.02533	938.82672	781.58209	-1249.36743	1041.10254	1399.26172	-1344.70996	1099.10730	1196.29370	-1346.73193	1091.32373	1071.58679	-1379.43872	1056.57190	957.03046	-1369.74255	963.62177	848.65845	-1402.78003	1011.39832	844.71307	-1404.34717	967.98877	769.82520	-996.93298	968.13525	938.02954	-1214.15723	971.10394	940.96149	-1043.80127	1153.87744	952.05701	-1189.57886	1155.76599	956.41827	-931.89075	946.66528	611.37610	-941.52991	941.80536	478.32687	-931.29089	1079.25623	356.59433	-975.26453	1228.15393	190.64670	-1030.81360	1279.61206	188.38898	-974.23157	1138.55847	78.88471	-1259.00916	1004.79944	606.93109	-1229.72681	979.40198	450.85367	-1233.14832	1032.20935	281.48553	-1184.74780	1062.62415	79.06090	-1136.55444	1113.93604	41.38494	-1183.26172	923.52911	40.84155	-1131.53162	946.43860	1719.66418	-3101.99170	1973.07910	1023.53180	-3140.75610	2012.43567	1021.95148						 
8	0.070	-1042.01965	957.25085	1680.08826	-1152.35730	923.75208	1685.49890	-1071.35974	1070.14624	1636.96692	-1188.45117	1038.66345	1642.16479	-1096.60669	1100.41614	1440.20776	-1100.12219	1133.91260	1146.69397	-1105.06201	956.07990	1374.64417	-1099.91260	911.12030	1220.02393	-1166.73975	1158.60767	1243.04968	-940.46210	1007.21002	1409.13782	-853.39709	1038.12720	1226.14319	-853.22821	1054.09631	1075.27380	-826.82312	1014.60480	968.68890	-842.42816	933.18268	855.21552	-819.14557	988.32593	848.96796	-807.91443	938.27460	780.65106	-1250.13843	1034.45276	1399.71277	-1346.02246	1091.82300	1196.69458	-1348.32739	1083.69971	1072.00977	-1381.06372	1047.79089	957.76385	-1371.13550	953.82050	850.26373	-1404.38892	1001.49280	845.87897	-1405.84167	957.27734	771.44855	-998.08496	962.33777	938.70313	-1215.17896	965.20477	940.94104	-1044.67346	1148.03516	952.50604	-1190.44006	1149.87634	956.59143	-932.17871	937.03882	613.23663	-942.23071	930.36200	480.35083	-932.59851	1065.02649	354.99390	-977.55243	1210.32642	186.70738	-1033.63525	1261.37292	182.31696	-973.47351	1117.07239	78.51202	-1259.39136	1001.21631	606.53387	-1230.07410	977.10077	450.49640	-1233.15759	1030.65417	281.14886	-1184.61304	1062.47192	79.05626	-1136.50256	1113.91016	41.52226	-1183.23328	923.42651	40.78189	-1131.91187	938.97095	1719.31580	-3101.88281	1973.21619	1023.49500	-3140.79688	2012.50928	1022.10065						 
